<svg width="197" height="71" viewBox="0 0 197 71" fill="none" xmlns="http://www.w3.org/2000/svg">
<path d="M76.3566 11.5967C76.3566 3.93769 150.339 2.98033 157.295 11.5967" stroke="#2D76E4" stroke-width="1.33108" stroke-dasharray="2.66 2.66"/>
<g clip-path="url(#clip0_32_174)">
<path d="M54.1724 17.7282C54.3192 17.8756 54.4317 18.0535 54.5018 18.2493C54.572 18.4451 54.5981 18.654 54.5783 18.861C54.4789 19.8193 54.2904 20.7663 54.0154 21.6896C55.9883 21.2328 57.1933 20.7038 57.7406 20.4266C58.051 20.2694 58.4085 20.2321 58.7447 20.322C59.7085 20.5789 60.7017 20.7082 61.6991 20.7067C67.3506 20.7067 71.5991 16.7368 71.5991 12.221C71.5991 7.70666 67.3506 3.73538 61.6991 3.73538C56.0477 3.73538 51.7992 7.70666 51.7992 12.221C51.7992 14.2972 52.6718 16.2234 54.1724 17.7282ZM53.4751 23.2509C53.1401 23.3174 52.8039 23.3782 52.4668 23.4334C52.1839 23.4786 51.9689 23.1845 52.0807 22.9214C52.2062 22.6253 52.3213 22.3248 52.4257 22.0205L52.43 22.0064C52.7807 20.9881 53.0664 19.8171 53.1711 18.7267C51.4358 16.9871 50.3849 14.7101 50.3849 12.221C50.3849 6.75344 55.4509 2.32111 61.6991 2.32111C67.9474 2.32111 73.0133 6.75344 73.0133 12.221C73.0133 17.6886 67.9474 22.1209 61.6991 22.1209C60.5785 22.1224 59.4626 21.977 58.3798 21.6882C57.6444 22.0601 56.0618 22.7376 53.4751 23.2509Z" fill="#2D76E4"/>
<path d="M56.0422 8.68526C56.0422 8.49771 56.1167 8.31785 56.2493 8.18523C56.3819 8.05262 56.5618 7.97812 56.7493 7.97812H66.6493C66.8368 7.97812 67.0167 8.05262 67.1493 8.18523C67.2819 8.31785 67.3564 8.49771 67.3564 8.68526C67.3564 8.8728 67.2819 9.05266 67.1493 9.18528C67.0167 9.31789 66.8368 9.39239 66.6493 9.39239H56.7493C56.5618 9.39239 56.3819 9.31789 56.2493 9.18528C56.1167 9.05266 56.0422 8.8728 56.0422 8.68526ZM56.0422 12.2209C56.0422 12.0334 56.1167 11.8535 56.2493 11.7209C56.3819 11.5883 56.5618 11.5138 56.7493 11.5138H66.6493C66.8368 11.5138 67.0167 11.5883 67.1493 11.7209C67.2819 11.8535 67.3564 12.0334 67.3564 12.2209C67.3564 12.4085 67.2819 12.5883 67.1493 12.721C67.0167 12.8536 66.8368 12.9281 66.6493 12.9281H56.7493C56.5618 12.9281 56.3819 12.8536 56.2493 12.721C56.1167 12.5883 56.0422 12.4085 56.0422 12.2209ZM56.0422 15.7566C56.0422 15.5691 56.1167 15.3892 56.2493 15.2566C56.3819 15.124 56.5618 15.0495 56.7493 15.0495H62.4064C62.594 15.0495 62.7738 15.124 62.9065 15.2566C63.0391 15.3892 63.1136 15.5691 63.1136 15.7566C63.1136 15.9442 63.0391 16.124 62.9065 16.2566C62.7738 16.3893 62.594 16.4638 62.4064 16.4638H56.7493C56.5618 16.4638 56.3819 16.3893 56.2493 16.2566C56.1167 16.124 56.0422 15.9442 56.0422 15.7566Z" fill="#2D76E4"/>
</g>
<g clip-path="url(#clip1_32_174)">
<path d="M170.718 19.4361C170.614 19.5401 170.535 19.6657 170.485 19.8039C170.436 19.9421 170.417 20.0896 170.431 20.2357C170.501 20.9122 170.634 21.5806 170.829 22.2324C169.436 21.9099 168.585 21.5365 168.199 21.3409C167.98 21.2299 167.727 21.2036 167.49 21.267C166.81 21.4483 166.109 21.5396 165.405 21.5385C161.415 21.5385 158.417 18.7363 158.417 15.5487C158.417 12.3621 161.415 9.5588 165.405 9.5588C169.394 9.5588 172.393 12.3621 172.393 15.5487C172.393 17.0142 171.777 18.3739 170.718 19.4361ZM171.21 23.3345C171.446 23.3814 171.684 23.4243 171.922 23.4633C172.121 23.4952 172.273 23.2876 172.194 23.1019C172.106 22.8928 172.024 22.6807 171.951 22.466L171.948 22.456C171.7 21.7372 171.498 20.9106 171.425 20.1409C172.649 18.913 173.391 17.3057 173.391 15.5487C173.391 11.6892 169.815 8.56049 165.405 8.56049C160.994 8.56049 157.418 11.6892 157.418 15.5487C157.418 19.4081 160.994 22.5368 165.405 22.5368C166.196 22.5379 166.983 22.4352 167.748 22.2314C168.267 22.4939 169.384 22.9721 171.21 23.3345Z" fill="#2D76E4"/>
<path d="M169.398 13.0529C169.398 12.9205 169.346 12.7936 169.252 12.7C169.158 12.6064 169.031 12.5538 168.899 12.5538H161.911C161.778 12.5538 161.651 12.6064 161.558 12.7C161.464 12.7936 161.412 12.9205 161.412 13.0529C161.412 13.1853 161.464 13.3123 161.558 13.4059C161.651 13.4995 161.778 13.5521 161.911 13.5521H168.899C169.031 13.5521 169.158 13.4995 169.252 13.4059C169.346 13.3123 169.398 13.1853 169.398 13.0529ZM169.398 15.5487C169.398 15.4163 169.346 15.2894 169.252 15.1957C169.158 15.1021 169.031 15.0495 168.899 15.0495H161.911C161.778 15.0495 161.651 15.1021 161.558 15.1957C161.464 15.2894 161.412 15.4163 161.412 15.5487C161.412 15.6811 161.464 15.8081 161.558 15.9017C161.651 15.9953 161.778 16.0479 161.911 16.0479H168.899C169.031 16.0479 169.158 15.9953 169.252 15.9017C169.346 15.8081 169.398 15.6811 169.398 15.5487ZM169.398 18.0445C169.398 17.9121 169.346 17.7851 169.252 17.6915C169.158 17.5979 169.031 17.5453 168.899 17.5453H164.906C164.773 17.5453 164.646 17.5979 164.553 17.6915C164.459 17.7851 164.407 17.9121 164.407 18.0445C164.407 18.1769 164.459 18.3038 164.553 18.3974C164.646 18.491 164.773 18.5436 164.906 18.5436H168.899C169.031 18.5436 169.158 18.491 169.252 18.3974C169.346 18.3038 169.398 18.1769 169.398 18.0445Z" fill="#2D76E4"/>
</g>
<path d="M1.57821 40.7992C1.57821 38.5931 1.96852 36.4379 2.74915 34.3336C3.56371 32.1953 4.73464 30.2608 6.26194 28.5298C7.78925 26.7649 9.65595 25.3734 11.8621 24.3552C14.0682 23.303 16.5797 22.777 19.3968 22.777C22.7229 22.777 25.5908 23.5067 28.0006 24.9661C30.4442 26.4255 32.26 28.3262 33.4479 30.668L28.0515 34.3845C27.4406 33.0269 26.643 31.9578 25.6587 31.1771C24.6744 30.3626 23.6223 29.8026 22.5023 29.4971C21.3822 29.1577 20.2792 28.988 19.1931 28.988C17.4282 28.988 15.884 29.3444 14.5603 30.0571C13.2706 30.7699 12.1845 31.7032 11.302 32.8572C10.4196 34.0111 9.75777 35.3009 9.31655 36.7263C8.90927 38.1518 8.70563 39.5773 8.70563 41.0028C8.70563 42.598 8.96018 44.1423 9.46928 45.6356C9.97838 47.095 10.6911 48.4017 11.6075 49.5557C12.5578 50.6757 13.6779 51.5751 14.9676 52.2539C16.2912 52.8988 17.7337 53.2212 19.2949 53.2212C20.415 53.2212 21.5519 53.0346 22.7059 52.6612C23.8599 52.2879 24.929 51.6939 25.9132 50.8794C26.8975 50.0648 27.6612 49.0127 28.2042 47.7229L33.957 51.0321C33.2443 52.8309 32.0734 54.3582 30.4443 55.614C28.8491 56.8698 27.0502 57.8201 25.0478 58.465C23.0453 59.1098 21.0598 59.4323 19.0913 59.4323C16.5118 59.4323 14.153 58.9062 12.0148 57.854C9.87656 56.768 8.02683 55.3425 6.46558 53.5776C4.93828 51.7788 3.73341 49.7763 2.85097 47.5702C2.00246 45.3302 1.57821 43.0731 1.57821 40.7992ZM62.8 59.1268H55.9781V44.1592C55.9781 42.0889 55.5708 40.5446 54.7562 39.5264C53.9756 38.5082 52.8895 37.9991 51.498 37.9991C50.6834 37.9991 49.8179 38.2367 48.9015 38.7118C47.9852 39.187 47.1536 39.8488 46.407 40.6973C45.6942 41.5119 45.1681 42.4622 44.8287 43.5483V59.1268H38.0068V21.9624H44.8287V37.3882C45.813 35.6912 47.1536 34.3675 48.8506 33.4172C50.5476 32.4669 52.3974 31.9917 54.3998 31.9917C56.1308 31.9917 57.5393 32.2972 58.6254 32.9081C59.7115 33.4851 60.56 34.2827 61.1709 35.3009C61.7818 36.2851 62.2061 37.4052 62.4436 38.6609C62.6812 39.8828 62.8 41.1555 62.8 42.4792V59.1268ZM66.8991 51.2357C66.8991 49.5048 67.3742 47.9945 68.3246 46.7047C69.3088 45.3811 70.6664 44.3629 72.3974 43.6501C74.1283 42.9374 76.1138 42.581 78.3538 42.581C79.4739 42.581 80.6109 42.6659 81.7648 42.8356C82.9188 43.0053 83.92 43.2768 84.7685 43.6501V42.2246C84.7685 40.5276 84.2594 39.2209 83.2412 38.3046C82.257 37.3882 80.7806 36.93 78.812 36.93C77.3526 36.93 75.9611 37.1845 74.6374 37.6936C73.3137 38.2027 71.9222 38.9494 70.4628 39.9337L68.2736 35.4536C70.0385 34.2996 71.8374 33.4342 73.6701 32.8572C75.5368 32.2802 77.4884 31.9917 79.5248 31.9917C83.3261 31.9917 86.2789 32.942 88.3831 34.8427C90.5214 36.7433 91.5905 39.4585 91.5905 42.9883V51.4903C91.5905 52.203 91.7093 52.7121 91.9468 53.0176C92.2184 53.323 92.6426 53.5097 93.2196 53.5776V59.1268C92.6087 59.2286 92.0487 59.3135 91.5396 59.3814C91.0644 59.4492 90.6571 59.4832 90.3177 59.4832C88.9601 59.4832 87.925 59.1777 87.2122 58.5668C86.5334 57.9559 86.1092 57.2092 85.9395 56.3267L85.7867 54.9522C84.6328 56.4455 83.1903 57.5995 81.4594 58.4141C79.7284 59.2286 77.9635 59.6359 76.1647 59.6359C74.3998 59.6359 72.8046 59.2795 71.3792 58.5668C69.9876 57.8201 68.8846 56.8189 68.07 55.5631C67.2894 54.2734 66.8991 52.8309 66.8991 51.2357ZM83.4958 52.6103C83.8691 52.203 84.1746 51.7957 84.4122 51.3885C84.6497 50.9812 84.7685 50.6078 84.7685 50.2684V47.5702C83.954 47.2308 83.0715 46.9763 82.1212 46.8066C81.1709 46.6029 80.2715 46.5011 79.423 46.5011C77.6581 46.5011 76.1987 46.8914 75.0447 47.672C73.9247 48.4187 73.3647 49.4199 73.3647 50.6757C73.3647 51.3545 73.5513 51.9994 73.9247 52.6103C74.298 53.2212 74.8411 53.7134 75.5538 54.0867C76.2665 54.46 77.115 54.6467 78.0993 54.6467C79.1175 54.6467 80.1187 54.46 81.103 54.0867C82.0873 53.6794 82.8848 53.1873 83.4958 52.6103ZM113.703 57.7522C113.126 57.9898 112.43 58.2613 111.615 58.5668C110.801 58.8722 109.918 59.1098 108.968 59.2795C108.052 59.4832 107.118 59.585 106.168 59.585C104.912 59.585 103.758 59.3644 102.706 58.9232C101.654 58.4819 100.805 57.7862 100.16 56.8358C99.5496 55.8516 99.2441 54.5788 99.2441 53.0176V37.6936H95.7313V32.4499H99.2441V23.7952H106.066V32.4499H111.666V37.6936H106.066V50.7266C106.1 51.643 106.355 52.3048 106.83 52.7121C107.305 53.1194 107.899 53.323 108.612 53.323C109.324 53.323 110.02 53.2043 110.699 52.9667C111.378 52.7291 111.921 52.5255 112.328 52.3558L113.703 57.7522ZM147.394 59.1268V35.4027L138.129 53.0685H134.209L124.943 35.4027V59.1268H117.917V22.9806H125.452L136.143 43.5483L146.936 22.9806H154.42V59.1268H147.394Z" fill="black"/>
<path d="M173.228 59.4423C171.121 59.8091 169.154 59.7899 167.327 59.3846C165.493 58.946 163.867 58.2129 162.448 57.1853C161.023 56.1243 159.836 54.8495 158.888 53.361C157.968 51.8332 157.35 50.1665 157.036 48.3609C156.599 45.8532 156.752 43.4667 157.494 41.2014C158.27 38.9304 159.587 36.9958 161.445 35.3976C163.33 33.7602 165.694 32.6941 168.536 32.1992C171.411 31.6984 173.98 31.9058 176.24 32.8212C178.495 33.7032 180.339 35.0876 181.769 36.9744C183.228 38.8219 184.164 40.9327 184.577 43.3067C184.647 43.7079 184.703 44.1288 184.746 44.5693C184.782 44.9764 184.807 45.3166 184.82 45.5899L164.507 49.127C164.874 50.4412 165.462 51.5445 166.272 52.437C167.115 53.3237 168.085 53.9471 169.182 54.3075C170.305 54.6285 171.452 54.6872 172.623 54.4834C173.96 54.2505 175.159 53.7145 176.218 52.8754C177.306 51.9971 177.974 50.9851 178.222 49.8394L184.269 50.44C183.867 51.8881 183.154 53.2352 182.131 54.4814C181.141 55.7217 179.896 56.7825 178.396 57.6639C176.89 58.5118 175.167 59.1046 173.228 59.4423ZM163.614 44.89L177.357 42.497C176.99 41.1828 176.405 40.0962 175.601 39.2371C174.824 38.3388 173.888 37.7095 172.791 37.3492C171.689 36.9554 170.52 36.8663 169.283 37.0817C168.079 37.2913 167.025 37.7677 166.121 38.5108C165.244 39.2146 164.576 40.1234 164.115 41.2371C163.682 42.3116 163.515 43.5292 163.614 44.89Z" fill="black"/>
<defs>
<clipPath id="clip0_32_174">
<rect width="22.6284" height="22.6284" fill="white" transform="translate(50.3849 0.906769)"/>
</clipPath>
<clipPath id="clip1_32_174">
<rect width="15.973" height="15.973" fill="white" transform="matrix(-1 0 0 1 173.391 7.56216)"/>
</clipPath>
</defs>
</svg>
