<svg width="1040" height="709" viewBox="0 0 1040 709" fill="none" xmlns="http://www.w3.org/2000/svg">
<g opacity="0.8">
<rect width="8" height="241" rx="4" transform="matrix(-0.819152 0.573576 0.573576 0.819152 285.553 -95.7206)" fill="url(#paint0_linear_65_395)"/>
<rect width="6" height="181" rx="3" transform="matrix(-0.819152 0.573576 0.573576 0.819152 656.915 -113.721)" fill="url(#paint1_linear_65_395)"/>
<rect width="30" height="400" rx="15" transform="matrix(-0.819152 0.573576 0.573576 0.819152 320.575 -114.721)" fill="url(#paint2_linear_65_395)"/>
<rect width="23" height="300" rx="11.25" transform="matrix(-0.819152 0.573576 0.573576 0.819152 366.84 -217.721)" fill="url(#paint3_linear_65_395)"/>
<rect width="19" height="400" rx="9.5" transform="matrix(-0.819152 0.573576 0.573576 0.819152 810.564 -263)" fill="url(#paint4_linear_65_395)"/>
<rect opacity="0.312783" width="4.84701" height="241" rx="2.42351" transform="matrix(-0.809017 0.587785 0.587785 0.809017 611.921 460.279)" fill="url(#paint5_linear_65_395)"/>
<rect width="4.84701" height="100" rx="2.42351" transform="matrix(-0.809017 0.587785 0.587785 0.809017 560.921 425.279)" fill="url(#paint6_linear_65_395)"/>
<rect opacity="0.169044" width="6.85" height="75" rx="3.425" transform="matrix(-0.809017 0.587785 0.587785 0.809017 73.5417 54.9928)" fill="url(#paint7_linear_65_395)"/>
<rect opacity="0.312783" width="8" height="241" rx="4" transform="matrix(-0.809017 0.587785 0.587785 0.809017 750.472 509.279)" fill="url(#paint8_linear_65_395)"/>
<rect width="4.84701" height="241" rx="2.42351" transform="matrix(-0.809017 0.587785 0.587785 0.809017 -24.0787 249.279)" fill="url(#paint9_linear_65_395)"/>
<rect opacity="0.143965" width="12" height="241" rx="6" transform="matrix(-0.809017 0.587785 0.587785 0.809017 -56.2918 249.279)" fill="url(#paint10_linear_65_395)"/>
</g>
<defs>
<linearGradient id="paint0_linear_65_395" x1="-4.54239" y1="-401.319" x2="-34.9406" y2="-400.96" gradientUnits="userSpaceOnUse">
<stop stop-color="#2D76E4"/>
<stop offset="1" stop-color="#8839D8"/>
</linearGradient>
<linearGradient id="paint1_linear_65_395" x1="24.5769" y1="-808.909" x2="-26.5982" y2="-808.584" gradientUnits="userSpaceOnUse">
<stop stop-color="#2D76E4"/>
<stop offset="1" stop-color="#8839D8"/>
</linearGradient>
<linearGradient id="paint2_linear_65_395" x1="-17.034" y1="-666.089" x2="-130.962" y2="-663.056" gradientUnits="userSpaceOnUse">
<stop stop-color="#2D76E4"/>
<stop offset="1" stop-color="#8839D8"/>
</linearGradient>
<linearGradient id="paint3_linear_65_395" x1="80.0602" y1="-1557.11" x2="-161.28" y2="-1554.5" gradientUnits="userSpaceOnUse">
<stop stop-color="#0A6CFF"/>
<stop offset="0.946455" stop-color="#9762EE"/>
<stop offset="1" stop-color="#EC74E7"/>
</linearGradient>
<linearGradient id="paint4_linear_65_395" x1="-10.7882" y1="-666.089" x2="-82.9734" y2="-664.872" gradientUnits="userSpaceOnUse">
<stop stop-color="#2D76E4"/>
<stop offset="1" stop-color="#8839D8"/>
</linearGradient>
<linearGradient id="paint5_linear_65_395" x1="-2.75213" y1="-401.319" x2="-21.1713" y2="-401.187" gradientUnits="userSpaceOnUse">
<stop stop-color="#2D76E4"/>
<stop offset="1" stop-color="#8839D8"/>
</linearGradient>
<linearGradient id="paint6_linear_65_395" x1="-2.75213" y1="-166.522" x2="-21.1668" y2="-166.205" gradientUnits="userSpaceOnUse">
<stop stop-color="#2D76E4"/>
<stop offset="1" stop-color="#8839D8"/>
</linearGradient>
<linearGradient id="paint7_linear_65_395" x1="-3.88942" y1="-124.892" x2="-29.8942" y2="-124.049" gradientUnits="userSpaceOnUse">
<stop stop-color="#2D76E4"/>
<stop offset="1" stop-color="#8839D8"/>
</linearGradient>
<linearGradient id="paint8_linear_65_395" x1="-4.54239" y1="-401.319" x2="-34.9406" y2="-400.96" gradientUnits="userSpaceOnUse">
<stop stop-color="#2D76E4"/>
<stop offset="1" stop-color="#8839D8"/>
</linearGradient>
<linearGradient id="paint9_linear_65_395" x1="-2.75213" y1="-401.319" x2="-21.1713" y2="-401.187" gradientUnits="userSpaceOnUse">
<stop stop-color="#2D76E4"/>
<stop offset="1" stop-color="#8839D8"/>
</linearGradient>
<linearGradient id="paint10_linear_65_395" x1="-6.81358" y1="-401.319" x2="-52.403" y2="-400.513" gradientUnits="userSpaceOnUse">
<stop stop-color="#2D76E4"/>
<stop offset="1" stop-color="#8839D8"/>
</linearGradient>
</defs>
</svg>
